<?xml version="1.0" encoding="UTF-8" standalone="no"?><svg xmlns="http://www.w3.org/2000/svg" xmlns:xlink="http://www.w3.org/1999/xlink" contentScriptType="application/ecmascript" contentStyleType="text/css" height="448px" preserveAspectRatio="none" style="width:235px;height:448px;" version="1.1" viewBox="0 0 235 448" width="235px" zoomAndPan="magnify"><defs><filter height="300%" id="fg9wq2wgkqu1m" width="300%" x="-1" y="-1"><feGaussianBlur result="blurOut" stdDeviation="2.0"/><feColorMatrix in="blurOut" result="blurOut2" type="matrix" values="0 0 0 0 0 0 0 0 0 0 0 0 0 0 0 0 0 0 .4 0"/><feOffset dx="4.0" dy="4.0" in="blurOut2" result="blurOut3"/><feBlend in="SourceGraphic" in2="blurOut3" mode="normal"/></filter></defs><g><ellipse cx="114.5" cy="20" fill="#000000" filter="url(#fg9wq2wgkqu1m)" rx="10" ry="10" style="stroke: none; stroke-width: 1.0;"/><rect fill="#FEFECE" filter="url(#fg9wq2wgkqu1m)" height="33.9688" rx="12.5" ry="12.5" style="stroke: #A80036; stroke-width: 1.5;" width="146" x="41.5" y="94"/><text fill="#000000" font-family="sans-serif" font-size="12" lengthAdjust="spacingAndGlyphs" textLength="126" x="51.5" y="115.1387">Start execution timer</text><rect fill="#FEFECE" filter="url(#fg9wq2wgkqu1m)" height="33.9688" rx="12.5" ry="12.5" style="stroke: #A80036; stroke-width: 1.5;" width="107" x="61" y="147.9688"/><text fill="#000000" font-family="sans-serif" font-size="12" lengthAdjust="spacingAndGlyphs" textLength="87" x="71" y="169.1074">Classify image</text><rect fill="#FEFECE" filter="url(#fg9wq2wgkqu1m)" height="33.9688" rx="12.5" ry="12.5" style="stroke: #A80036; stroke-width: 1.5;" width="146" x="41.5" y="209.4375"/><text fill="#000000" font-family="sans-serif" font-size="12" lengthAdjust="spacingAndGlyphs" textLength="126" x="51.5" y="230.5762">Stop execution timer</text><rect fill="#FEFECE" filter="url(#fg9wq2wgkqu1m)" height="33.9688" rx="12.5" ry="12.5" style="stroke: #A80036; stroke-width: 1.5;" width="165" x="32" y="263.4063"/><text fill="#000000" font-family="sans-serif" font-size="12" lengthAdjust="spacingAndGlyphs" textLength="145" x="42" y="284.5449">Save accuracy statistics</text><polygon fill="#FEFECE" filter="url(#fg9wq2wgkqu1m)" points="114.5,50,126.5,62,114.5,74,102.5,62,114.5,50" style="stroke: #A80036; stroke-width: 1.5;"/><polygon fill="#FEFECE" filter="url(#fg9wq2wgkqu1m)" points="74.5,317.375,154.5,317.375,166.5,329.375,154.5,341.375,74.5,341.375,62.5,329.375,74.5,317.375" style="stroke: #A80036; stroke-width: 1.5;"/><text fill="#000000" font-family="sans-serif" font-size="11" lengthAdjust="spacingAndGlyphs" textLength="80" x="74.5" y="333.1831">More images?</text><rect fill="#FEFECE" filter="url(#fg9wq2wgkqu1m)" height="33.9688" rx="12.5" ry="12.5" style="stroke: #A80036; stroke-width: 1.5;" width="209" x="10" y="361.375"/><text fill="#000000" font-family="sans-serif" font-size="12" lengthAdjust="spacingAndGlyphs" textLength="189" x="20" y="382.5137">Write accuracy statistcs to disk</text><ellipse cx="114.5" cy="426.3438" fill="#FFFFFF" filter="url(#fg9wq2wgkqu1m)" rx="11" ry="11" style="stroke: #000000; stroke-width: 1.0;"/><ellipse cx="114.5" cy="426.3438" fill="#000000" rx="6" ry="6" style="stroke: #7F7F7F; stroke-width: 1.0;"/><line style="stroke: #A80036; stroke-width: 1.5;" x1="114.5" x2="114.5" y1="127.9688" y2="147.9688"/><polygon fill="#A80036" points="110.5,137.9688,114.5,147.9688,118.5,137.9688,114.5,141.9688" style="stroke: #A80036; stroke-width: 1.0;"/><line style="stroke: #A80036; stroke-width: 1.5;" x1="114.5" x2="114.5" y1="181.9375" y2="209.4375"/><polygon fill="#A80036" points="110.5,199.4375,114.5,209.4375,118.5,199.4375,114.5,203.4375" style="stroke: #A80036; stroke-width: 1.0;"/><line style="stroke: #A80036; stroke-width: 1.5;" x1="114.5" x2="114.5" y1="243.4063" y2="263.4063"/><polygon fill="#A80036" points="110.5,253.4063,114.5,263.4063,118.5,253.4063,114.5,257.4063" style="stroke: #A80036; stroke-width: 1.0;"/><line style="stroke: #A80036; stroke-width: 1.5;" x1="114.5" x2="114.5" y1="74" y2="94"/><polygon fill="#A80036" points="110.5,84,114.5,94,118.5,84,114.5,88" style="stroke: #A80036; stroke-width: 1.0;"/><line style="stroke: #A80036; stroke-width: 1.5;" x1="166.5" x2="209" y1="329.375" y2="329.375"/><polygon fill="#A80036" points="205,201.9375,209,191.9375,213,201.9375,209,197.9375" style="stroke: #A80036; stroke-width: 1.5;"/><line style="stroke: #A80036; stroke-width: 1.5;" x1="209" x2="209" y1="62" y2="329.375"/><line style="stroke: #A80036; stroke-width: 1.5;" x1="209" x2="126.5" y1="62" y2="62"/><polygon fill="#A80036" points="136.5,58,126.5,62,136.5,66,132.5,62" style="stroke: #A80036; stroke-width: 1.0;"/><line style="stroke: #A80036; stroke-width: 1.5;" x1="114.5" x2="114.5" y1="297.375" y2="317.375"/><polygon fill="#A80036" points="110.5,307.375,114.5,317.375,118.5,307.375,114.5,311.375" style="stroke: #A80036; stroke-width: 1.0;"/><line style="stroke: #A80036; stroke-width: 1.5;" x1="114.5" x2="114.5" y1="30" y2="50"/><polygon fill="#A80036" points="110.5,40,114.5,50,118.5,40,114.5,44" style="stroke: #A80036; stroke-width: 1.0;"/><line style="stroke: #A80036; stroke-width: 1.5;" x1="114.5" x2="114.5" y1="341.375" y2="361.375"/><polygon fill="#A80036" points="110.5,351.375,114.5,361.375,118.5,351.375,114.5,355.375" style="stroke: #A80036; stroke-width: 1.0;"/><line style="stroke: #A80036; stroke-width: 1.5;" x1="114.5" x2="114.5" y1="395.3438" y2="415.3438"/><polygon fill="#A80036" points="110.5,405.3438,114.5,415.3438,118.5,405.3438,114.5,409.3438" style="stroke: #A80036; stroke-width: 1.0;"/><!--MD5=[ee3e392871e0661c7ce6e48d6f10c842]
@startuml
start

repeat
  :Start execution timer;
  :Classify image;
  :Stop execution timer;
  :Save accuracy statistics;
repeat while (More images?)
:Write accuracy statistcs to disk;

stop
@enduml

PlantUML version 1.2020.12(Sat Jun 06 10:54:15 UTC 2020)
(GPL source distribution)
Java Runtime: Java(TM) SE Runtime Environment
JVM: Java HotSpot(TM) 64-Bit Server VM
Default Encoding: UTF-8
Language: en
Country: US
--></g></svg>