<?xml version="1.0" encoding="UTF-8" standalone="no"?><svg xmlns="http://www.w3.org/2000/svg" xmlns:xlink="http://www.w3.org/1999/xlink" contentScriptType="application/ecmascript" contentStyleType="text/css" height="615px" preserveAspectRatio="none" style="width:325px;height:615px;" version="1.1" viewBox="0 0 325 615" width="325px" zoomAndPan="magnify"><defs><filter height="300%" id="fsau4s0k4rj70" width="300%" x="-1" y="-1"><feGaussianBlur result="blurOut" stdDeviation="2.0"/><feColorMatrix in="blurOut" result="blurOut2" type="matrix" values="0 0 0 0 0 0 0 0 0 0 0 0 0 0 0 0 0 0 .4 0"/><feOffset dx="4.0" dy="4.0" in="blurOut2" result="blurOut3"/><feBlend in="SourceGraphic" in2="blurOut3" mode="normal"/></filter></defs><g><ellipse cx="160" cy="16" fill="#000000" filter="url(#fsau4s0k4rj70)" rx="10" ry="10" style="stroke: none; stroke-width: 1.0;"/><rect fill="#FEFECE" filter="url(#fsau4s0k4rj70)" height="33.9688" rx="12.5" ry="12.5" style="stroke: #A80036; stroke-width: 1.5;" width="162" x="79" y="66"/><text fill="#000000" font-family="sans-serif" font-size="12" lengthAdjust="spacingAndGlyphs" textLength="142" x="89" y="87.1387">Parse imagenet dataset</text><rect fill="#FEFECE" filter="url(#fsau4s0k4rj70)" height="33.9688" rx="12.5" ry="12.5" style="stroke: #A80036; stroke-width: 1.5;" width="248" x="36" y="140"/><text fill="#000000" font-family="sans-serif" font-size="12" lengthAdjust="spacingAndGlyphs" textLength="228" x="46" y="161.1387">Randomly select images from dataset</text><rect fill="#FEFECE" filter="url(#fsau4s0k4rj70)" height="33.9688" rx="12.5" ry="12.5" style="stroke: #A80036; stroke-width: 1.5;" width="197" x="61.5" y="214"/><text fill="#000000" font-family="sans-serif" font-size="12" lengthAdjust="spacingAndGlyphs" textLength="177" x="71.5" y="235.1387">Write new dataset to storage</text><rect fill="#FEFECE" filter="url(#fsau4s0k4rj70)" height="33.9688" rx="12.5" ry="12.5" style="stroke: #A80036; stroke-width: 1.5;" width="189" x="65.5" y="288"/><text fill="#000000" font-family="sans-serif" font-size="12" lengthAdjust="spacingAndGlyphs" textLength="169" x="75.5" y="309.1387">Open and read new dataset</text><rect fill="#FEFECE" filter="url(#fsau4s0k4rj70)" height="33.9688" rx="12.5" ry="12.5" style="stroke: #A80036; stroke-width: 1.5;" width="221" x="49.5" y="362"/><text fill="#000000" font-family="sans-serif" font-size="12" lengthAdjust="spacingAndGlyphs" textLength="201" x="59.5" y="383.1387">Compress dataset with encoders</text><rect fill="#FEFECE" filter="url(#fsau4s0k4rj70)" height="33.9688" rx="12.5" ry="12.5" style="stroke: #A80036; stroke-width: 1.5;" width="308" x="6" y="436"/><text fill="#000000" font-family="sans-serif" font-size="12" lengthAdjust="spacingAndGlyphs" textLength="288" x="16" y="457.1387">Analyze compressed images and apply metrics</text><rect fill="#FEFECE" filter="url(#fsau4s0k4rj70)" height="33.9688" rx="12.5" ry="12.5" style="stroke: #A80036; stroke-width: 1.5;" width="139" x="90.5" y="510"/><text fill="#000000" font-family="sans-serif" font-size="12" lengthAdjust="spacingAndGlyphs" textLength="119" x="100.5" y="531.1387">Write metrics to file</text><ellipse cx="160" cy="594" fill="none" filter="url(#fsau4s0k4rj70)" rx="10" ry="10" style="stroke: #000000; stroke-width: 1.0;"/><ellipse cx="160.5" cy="594.5" fill="#000000" rx="6" ry="6" style="stroke: none; stroke-width: 1.0;"/><!--MD5=[8ef4f3ce8a83cc131626be5e61dee1ed]
link start to Parse imagenet dataset--><path d="M160,26.038 C160,34.932 160,48.844 160,60.572 " fill="none" id="start-&gt;Parse imagenet dataset" style="stroke: #A80036; stroke-width: 1.0;"/><polygon fill="#A80036" points="160,65.781,164,56.781,160,60.781,156,56.781,160,65.781" style="stroke: #A80036; stroke-width: 1.0;"/><!--MD5=[b7c4b9b0ad8bd762ef93e5d6351e522a]
link Parse imagenet dataset to Randomly select images from dataset--><path d="M160,100.338 C160,110.464 160,123.584 160,134.543 " fill="none" id="Parse imagenet dataset-&gt;Randomly select images from dataset" style="stroke: #A80036; stroke-width: 1.0;"/><polygon fill="#A80036" points="160,139.727,164,130.727,160,134.727,156,130.727,160,139.727" style="stroke: #A80036; stroke-width: 1.0;"/><!--MD5=[c9eeb5a0a865976b879c5d103232dbbe]
link Randomly select images from dataset to Write new dataset to storage--><path d="M160,174.338 C160,184.464 160,197.584 160,208.543 " fill="none" id="Randomly select images from dataset-&gt;Write new dataset to storage" style="stroke: #A80036; stroke-width: 1.0;"/><polygon fill="#A80036" points="160,213.727,164,204.727,160,208.727,156,204.727,160,213.727" style="stroke: #A80036; stroke-width: 1.0;"/><!--MD5=[b97e61c9a0047e3c65cec4083fe10ceb]
link Write new dataset to storage to Open and read new dataset--><path d="M160,248.338 C160,258.464 160,271.584 160,282.543 " fill="none" id="Write new dataset to storage-&gt;Open and read new dataset" style="stroke: #A80036; stroke-width: 1.0;"/><polygon fill="#A80036" points="160,287.727,164,278.727,160,282.727,156,278.727,160,287.727" style="stroke: #A80036; stroke-width: 1.0;"/><!--MD5=[8e9d81641f2891fca70f0596cbe22a07]
link Open and read new dataset to Compress dataset with encoders--><path d="M160,322.338 C160,332.464 160,345.584 160,356.543 " fill="none" id="Open and read new dataset-&gt;Compress dataset with encoders" style="stroke: #A80036; stroke-width: 1.0;"/><polygon fill="#A80036" points="160,361.727,164,352.727,160,356.727,156,352.727,160,361.727" style="stroke: #A80036; stroke-width: 1.0;"/><!--MD5=[854b25413de41845d0d150f92d224ca7]
link Compress dataset with encoders to Analyze compressed images and apply metrics--><path d="M160,396.338 C160,406.464 160,419.584 160,430.543 " fill="none" id="Compress dataset with encoders-&gt;Analyze compressed images and apply metrics" style="stroke: #A80036; stroke-width: 1.0;"/><polygon fill="#A80036" points="160,435.727,164,426.727,160,430.727,156,426.727,160,435.727" style="stroke: #A80036; stroke-width: 1.0;"/><!--MD5=[122692195fabccbf3ebc827e57d8ecb1]
link Analyze compressed images and apply metrics to Write metrics to file--><path d="M160,470.338 C160,480.464 160,493.584 160,504.5432 " fill="none" id="Analyze compressed images and apply metrics-&gt;Write metrics to file" style="stroke: #A80036; stroke-width: 1.0;"/><polygon fill="#A80036" points="160,509.7267,164,500.7267,160,504.7267,156,500.7267,160,509.7267" style="stroke: #A80036; stroke-width: 1.0;"/><!--MD5=[df09d3ba289501df0353318aa76c19bf]
link Write metrics to file to end--><path d="M160,544.0674 C160,554.5986 160,568.2536 160,578.4618 " fill="none" id="Write metrics to file-&gt;end" style="stroke: #A80036; stroke-width: 1.0;"/><polygon fill="#A80036" points="160,583.7367,164,574.7367,160,578.7367,156,574.7367,160,583.7367" style="stroke: #A80036; stroke-width: 1.0;"/><!--MD5=[835799c26f9e9333308230b2ddc49ce3]
@startuml
(*) - -> "Parse imagenet dataset"
- -> "Randomly select images from dataset"
- -> "Write new dataset to storage"
- -> "Open and read new dataset"
- -> "Compress dataset with encoders"
- -> "Analyze compressed images and apply metrics"
- -> "Write metrics to file"
- -> (*)
@enduml

PlantUML version 1.2020.12(Sat Jun 06 10:54:15 UTC 2020)
(GPL source distribution)
Java Runtime: Java(TM) SE Runtime Environment
JVM: Java HotSpot(TM) 64-Bit Server VM
Default Encoding: UTF-8
Language: en
Country: US
--></g></svg>